<?xml version="1.0" encoding="utf-8"?>
<!-- Generator: Adobe Illustrator 19.2.1, SVG Export Plug-In . SVG Version: 6.00 Build 0)  -->
<svg version="1.1" id="Layer_1" xmlns="http://www.w3.org/2000/svg" xmlns:xlink="http://www.w3.org/1999/xlink" x="0px" y="0px"
	 viewBox="0 0 209 206.5" enable-background="new 0 0 209 206.5" xml:space="preserve">
<path opacity="0.3" fill="#FCFCFC" d="M0,191.4L0,15.2C0,6.8,6.8,0,15.2,0l90.8,0c8.3,0,15.2,6.8,15.2,15.2v176.2
	c0,8.3-6.8,15.2-15.2,15.2H15.2C6.8,206.5,0,199.7,0,191.4z"/>
<path opacity="0.8" fill="#FCFCFC" d="M155.6,190.9V15.7c0-8.6,7.1-15.7,15.7-15.7l22.1,0c8.6,0,15.7,7.1,15.7,15.7v175.2
	c0,8.6-7.1,15.7-15.7,15.7h-22.1C162.6,206.5,155.6,199.5,155.6,190.9z"/>
</svg>
