<?xml version="1.0" encoding="utf-8"?>
<!-- Generator: Adobe Illustrator 19.2.1, SVG Export Plug-In . SVG Version: 6.00 Build 0)  -->
<svg version="1.1" id="Layer_1" xmlns="http://www.w3.org/2000/svg" xmlns:xlink="http://www.w3.org/1999/xlink" x="0px" y="0px"
	 viewBox="0 0 206.5 209" enable-background="new 0 0 206.5 209" xml:space="preserve">
<path opacity="0.3" fill="#FCFCFC" d="M191.4,209H15.2C6.8,209,0,202.2,0,193.8l0-90.8c0-8.3,6.8-15.2,15.2-15.2h176.2
	c8.3,0,15.2,6.8,15.2,15.2v90.8C206.5,202.2,199.7,209,191.4,209z"/>
<path opacity="0.3" fill="#FCFCFC" d="M190.9,53.4H15.7C7.1,53.4,0,46.4,0,37.8l0-22.1C0,7.1,7.1,0,15.7,0l175.2,0
	c8.6,0,15.7,7.1,15.7,15.7v22.1C206.5,46.4,199.5,53.4,190.9,53.4z"/>
</svg>
